<svg width="100" height="80" version="1.1" viewBox="0 0 26.458 21.167" xmlns="http://www.w3.org/2000/svg">
 <g>
  <path d="m0 0h26.458v21.167h-26.458z" fill="#13245e"/>
  <path d="m23.812 0-10.583 10.583-10.583-10.583h-2.6458v2.6458l7.9375 7.9375-7.9375 7.9375v2.6458h2.6458l10.583-10.583 10.583 10.583h2.6458v-2.6458l-7.9375-7.9375 7.9375-7.9375v-2.6458z" fill="#fdfdfd"/>
  <g fill="#ad2b33">
   <path d="m26.458 0-10.583 10.583h-2.1167l10.848-10.583z"/>
   <path d="m26.458 21.167-10.583-10.583v-2.1167l10.583 10.848z"/>
   <path d="m3.3333e-7 21.167 10.583-10.583h2.1167l-10.848 10.583z"/>
   <path d="m-2.0667e-6 8.3333e-7 10.583 10.583 2e-6 2.1167-10.583-10.848z"/>
  </g>
  <path d="m9.525 6.6667e-7 3e-7 6.8792-9.525-6e-7v7.4083l9.525 1e-6 -3e-7 6.8792h7.4083l1e-6 -6.8792 9.525-1e-6v-7.4083l-9.7896 6e-7 -1e-6 -6.8792z" fill="#fdfdfd"/>
  <path d="m10.583 0v7.9375h-10.583v5.2917h10.583v7.9375h5.2917v-7.9375h10.583v-5.2917h-10.583v-7.9375z" fill="#ad2b33"/>
 </g>
</svg>
