<svg width="50" height="40" version="1.1" viewBox="0 0 13.229 10.583" xmlns="http://www.w3.org/2000/svg">
 <g>
  <rect width="13.229" height="10.583" fill="#f5f5f5" style="paint-order:stroke fill markers"/>
  <path d="m7.4083 8.2021v0.26458l0.79375 0.79375 0.26458-0.26458-0.79375-0.79375z" fill="#bd9c3b"/>
  <path d="m5.8208 8.2021v0.26458l-0.79375 0.79375-0.26458-0.26458 0.79375-0.79375z" fill="#bd9c3b"/>
  <path d="m5.2917 0.79375s-1.2442 0.80229-1.5875 1.3229c-0.26145 0.3965-0.4685 1.381-0.52917 1.8521-0.090819 0.70522 0.28123 1.4502 0.52917 2.1167 0.11088 0.29803 0.27646 0.60073 0.52917 0.79375 0.44328 0.33857 1.5875 0.52917 1.5875 0.52917l-0.52917 0.79375 0.52917 0.52917 0.79375-0.78652 0.79375 0.78652 0.52917-0.52917-0.52917-0.79375s1.1442-0.19059 1.5875-0.52917c0.25271-0.19302 0.41829-0.49572 0.52917-0.79375 0.24794-0.66642 0.61998-1.4114 0.52917-2.1167-0.060663-0.47105-0.26772-1.4556-0.52917-1.8521-0.3433-0.52063-1.5875-1.3229-1.5875-1.3229v1.3229s0.52917 1.3771 0.52917 1.8521c0 0.47494-0.13588 1.0567-0.52917 1.3229-0.14606 0.098889-0.52917 0-0.52917 0l-0.26458-0.52917v-1.0583l0.26458-0.26458h-1.0583l-0.26458 0.26458v1.0583l-0.2434 0.52917s-0.39843 0.10286-0.55035 0c-0.39328-0.26627-0.52917-0.84798-0.52917-1.3229 0-0.47494 0.52917-1.8521 0.52917-1.8521z"/>
  <path d="m6.0854 3.7042h-0.26458l-0.26458 0.26458v0.52917l0.26458-0.26458h0.26458z" fill="#bd9c3b"/>
  <g transform="translate(.26458)">
   <path d="m2.1167 4.2333-0.0011906 0.52917 1.8533 3.7042 0.52917-0.26458-1.8521-3.7042z" fill="#a3c8c8"/>
   <path d="m3.4359 8.7312 1.5912-0.79375v0.26458l-1.3229 0.68023z"/>
   <path d="m4.2047 8.5455 0.53102 1.004 0.26458-0.14562-0.52917-0.99397z"/>
  </g>
  <path d="m10.319 4.4979-0.26458 0.26458-1.5875 3.1443v0.29525l-0.52917 1.1842 0.20237 0.13868 0.59138-1.1684 0.26458-0.15456 1.3229-3.3734z" fill="#bd9c3b"/>
 </g>
</svg>
