<?xml version="1.0" encoding="UTF-8" standalone="no"?>
<!-- Created with Inkscape (http://www.inkscape.org/) -->

<svg
   width="400"
   height="400"
   viewBox="0 0 105.83333 105.83333"
   version="1.1"
   id="svg1"
   inkscape:version="1.3.2 (091e20e, 2023-11-25, custom)"
   sodipodi:docname="background.svg"
   xmlns:inkscape="http://www.inkscape.org/namespaces/inkscape"
   xmlns:sodipodi="http://sodipodi.sourceforge.net/DTD/sodipodi-0.dtd"
   xmlns="http://www.w3.org/2000/svg"
   xmlns:svg="http://www.w3.org/2000/svg">
  <sodipodi:namedview
     id="namedview1"
     pagecolor="#ffffff"
     bordercolor="#666666"
     borderopacity="1.0"
     inkscape:showpageshadow="2"
     inkscape:pageopacity="0.0"
     inkscape:pagecheckerboard="true"
     inkscape:deskcolor="#d1d1d1"
     inkscape:document-units="mm"
     labelstyle="below"
     inkscape:zoom="1.525686"
     inkscape:cx="-132.39945"
     inkscape:cy="389.00533"
     inkscape:window-width="3440"
     inkscape:window-height="1369"
     inkscape:window-x="-8"
     inkscape:window-y="-8"
     inkscape:window-maximized="1"
     inkscape:current-layer="layer1" />
  <defs
     id="defs1" />
  <g
     inkscape:label="Layer 1"
     inkscape:groupmode="layer"
     id="layer1">
    <path
       style="fill:#000000;stroke:none;stroke-width:0.264583px;stroke-linecap:butt;stroke-linejoin:miter;stroke-opacity:1;fill-opacity:0.05"
       d="m 24.40256,62.845788 c -0.431387,-0.264489 -1.290581,0.572108 -1.103634,1.042321 0.09816,0.246892 0.584337,0.159174 0.797069,0 0.28997,-0.216967 0.615311,-0.853024 0.306565,-1.042321 z"
       id="path4"
       sodipodi:nodetypes="sass" />
    <path
       style="fill:#000000;stroke:none;stroke-width:0.264583px;stroke-linecap:butt;stroke-linejoin:miter;stroke-opacity:1;fill-opacity:0.05"
       d="m 15.818745,35.806771 c -0.853298,0.156758 -1.42106,2.071954 -0.674443,2.51383 0.584657,0.346022 1.410048,-0.733604 1.471511,-1.410197 0.04105,-0.451928 -0.350747,-1.185626 -0.797068,-1.103633 z"
       id="path5"
       sodipodi:nodetypes="ssss" />
    <path
       style="fill:#000000;stroke:none;stroke-width:0.264583px;stroke-linecap:butt;stroke-linejoin:miter;stroke-opacity:1;fill-opacity:0.05"
       d="m 89.516928,96.997109 c -0.564082,0.03675 -0.891003,1.441252 -0.367879,1.65545 0.356861,0.14612 0.572746,-0.597512 0.613129,-0.981009 0.02505,-0.237901 -0.0065,-0.689991 -0.24525,-0.674441 z"
       id="path6"
       sodipodi:nodetypes="ssss" />
    <path
       style="fill:#000000;stroke:none;stroke-width:0.264583px;stroke-linecap:butt;stroke-linejoin:miter;stroke-opacity:1;fill-opacity:0.05"
       d="m 21.950041,90.375308 c -0.400273,0.103051 -0.481483,0.939369 -0.183939,1.226259 0.239504,0.230928 0.861846,0.12669 0.981008,-0.183939 0.156656,-0.408368 -0.373496,-1.151369 -0.797069,-1.04232 z"
       id="path7"
       sodipodi:nodetypes="ssss" />
    <path
       style="fill:#000000;stroke:none;stroke-width:0.264583px;stroke-linecap:butt;stroke-linejoin:miter;stroke-opacity:1;fill-opacity:0.05"
       d="m 87.003095,8.0319982 c -0.37089,-0.060187 -0.777374,0.4218436 -0.797068,0.7970687 -0.02894,0.5514361 0.50952,1.4326321 1.042321,1.2875721 0.398809,-0.108579 0.248719,-0.8180414 0.183938,-1.2262592 -0.05014,-0.3159465 -0.113422,-0.8071394 -0.429191,-0.8583816 z"
       id="path8"
       sodipodi:nodetypes="sssss" />
    <path
       style="fill:#000000;stroke:none;stroke-width:0.264583px;stroke-linecap:butt;stroke-linejoin:miter;stroke-opacity:1;fill-opacity:0.05"
       d="m 31.269612,14.469859 c -1.042321,0.981008 0.183938,1.65545 0.183938,1.65545 0,0 0.998536,-0.747401 0.858382,-1.226259 -0.105546,-0.360613 -1.04232,-0.429191 -1.04232,-0.429191 z"
       id="path17"
       sodipodi:nodetypes="ccsc" />
    <path
       style="fill:#000000;stroke:none;stroke-width:0.264583px;stroke-linecap:butt;stroke-linejoin:miter;stroke-opacity:1;fill-opacity:0.05"
       d="m 85.776836,29.491535 c -0.652031,0.0085 -1.410532,1.117271 -1.042321,1.65545 0.364394,0.532599 1.651897,0.227556 1.900703,-0.367877 0.198876,-0.475943 -0.342602,-1.294299 -0.858382,-1.287573 z"
       id="path18"
       sodipodi:nodetypes="ssss" />
    <path
       style="fill:#000000;stroke:none;stroke-width:0.264583px;stroke-linecap:butt;stroke-linejoin:miter;stroke-opacity:1;fill-opacity:0.05"
       d="m 49.724815,34.580512 c -0.686651,0.108565 -1.144419,1.267093 -0.858383,1.900701 0.114377,0.253361 0.367877,0.245252 0.797068,0.245252 0.429191,0 0.674444,-1.471512 0.674444,-1.471512 0,0 -0.31303,-0.721889 -0.613129,-0.674441 z"
       id="path19"
       sodipodi:nodetypes="ssscs" />
    <path
       style="fill:#000000;stroke:none;stroke-width:0.264583px;stroke-linecap:butt;stroke-linejoin:miter;stroke-opacity:1;fill-opacity:0.05"
       d="m 62.110032,16.370561 c -0.585021,-0.07263 -0.981006,1.471511 -0.981006,1.471511 0,0 -0.122627,0.429191 0.122626,0.429191 0,0 1.23807,0.41735 1.532824,0 0.387823,-0.549129 -0.0073,-1.81788 -0.674444,-1.900702 z"
       id="path20"
       sodipodi:nodetypes="scsss" />
    <path
       style="fill:#000000;stroke:none;stroke-width:0.264583px;stroke-linecap:butt;stroke-linejoin:miter;stroke-opacity:1;fill-opacity:0.05"
       d="m 63.581544,69.406274 c -0.462903,-0.06132 -1.122757,0.114927 -1.287574,0.551818 -0.16779,0.44477 0.21118,1.03378 0.61313,1.287571 0.846779,0.534656 2.6759,0.946056 3.004335,0 0.324513,-0.934759 -1.348974,-1.709451 -2.329891,-1.839389 z"
       id="path21"
       sodipodi:nodetypes="sssss" />
    <path
       style="fill:#000000;stroke:none;stroke-width:0.264583px;stroke-linecap:butt;stroke-linejoin:miter;stroke-opacity:1;fill-opacity:0.05"
       d="m 88.229354,54.813789 0.429191,12.99835 0.183939,-5.763419 z"
       id="path22" />
    <path
       style="fill:#000000;stroke:none;stroke-width:0.264583px;stroke-linecap:butt;stroke-linejoin:miter;stroke-opacity:1;fill-opacity:0.05"
       d="M 45.371593,43.409578 40.221304,56.46924 44.697149,46.229976 Z"
       id="path23" />
    <path
       style="fill:#000000;stroke:none;stroke-width:0.264583px;stroke-linecap:butt;stroke-linejoin:miter;stroke-opacity:1;fill-opacity:0.05"
       d="M 71.613542,85.225018 55.059042,99.572253 67.934765,89.087737 Z"
       id="path24" />
  </g>
</svg>
